<svg width="25" height="25" viewBox="0 0 25 25" fill="none" xmlns="http://www.w3.org/2000/svg">
<path d="M5.83293 20.7502L7.42039 19.4802L7.43206 19.4713C7.76301 19.2065 7.93001 19.0729 8.11633 18.9777C8.2835 18.8923 8.46175 18.8301 8.64563 18.7924C8.85289 18.7498 9.06879 18.7498 9.50216 18.7498H18.5449C19.7094 18.7498 20.2923 18.7498 20.7375 18.523C21.1295 18.3233 21.4484 18.0042 21.6482 17.6122C21.875 17.167 21.875 16.5847 21.875 15.4202V7.49662C21.875 6.33212 21.875 5.74901 21.6482 5.30379C21.4484 4.91179 21.1289 4.59331 20.7369 4.39357C20.2912 4.1665 19.7086 4.1665 18.5419 4.1665H6.45854C5.29176 4.1665 4.70794 4.1665 4.26229 4.39357C3.87028 4.59331 3.55181 4.91179 3.35207 5.30379C3.125 5.74944 3.125 6.33327 3.125 7.50004V19.449C3.125 20.5591 3.125 21.114 3.35256 21.3991C3.55046 21.6471 3.85045 21.7913 4.16768 21.7909C4.53245 21.7906 4.96608 21.4437 5.83293 20.7502Z" stroke="#111111" stroke-width="1.5" stroke-linecap="round" stroke-linejoin="round"/>
</svg>
