<svg width="20" height="22" viewBox="0 0 20 22" fill="none" xmlns="http://www.w3.org/2000/svg">
<path fill-rule="evenodd" clip-rule="evenodd" d="M9.38574 0.210648C9.74685 -0.0702159 10.2531 -0.0702159 10.6143 0.210648L19.6143 7.21065C19.8575 7.40011 20 7.69133 20 7.99971V18.9997C19.9999 19.7952 19.6836 20.5583 19.1211 21.1208C18.5585 21.6833 17.7956 21.9997 17 21.9997H13V12.9997C13 11.8951 12.1046 10.9997 11 10.9997H9C7.89543 10.9997 7 11.8951 7 12.9997V21.9997H3C2.20443 21.9997 1.4415 21.6833 0.878906 21.1208C0.316373 20.5583 8.50389e-05 19.7952 0 18.9997V7.99971C0 7.69133 0.142457 7.40011 0.385742 7.21065L9.38574 0.210648Z" fill="black"/>
</svg>
