<svg width="24" height="24" viewBox="0 0 24 24" fill="none" xmlns="http://www.w3.org/2000/svg">
<path d="M21.2747 9.16846L20.8901 8.96317C20.8303 8.93129 20.801 8.91529 20.7721 8.89871C20.4853 8.73387 20.2435 8.50612 20.067 8.23364C20.0493 8.20622 20.0326 8.17747 19.9983 8.12064C19.9642 8.06389 19.9468 8.03513 19.931 8.00666C19.7727 7.72318 19.6871 7.40727 19.682 7.08572C19.6814 7.0534 19.6816 7.02037 19.6827 6.95471L19.6902 6.52618C19.7023 5.84043 19.7083 5.49649 19.6078 5.18782C19.5186 4.91365 19.3693 4.66112 19.17 4.44681C18.9446 4.20456 18.6327 4.03174 18.0083 3.68653L17.4896 3.39979C16.8668 3.05554 16.5554 2.88336 16.2248 2.81772C15.9323 2.75964 15.6305 2.76233 15.339 2.8251C15.0101 2.89593 14.7025 3.0726 14.0878 3.42574L14.0843 3.42734L13.7126 3.64083C13.6538 3.67458 13.6241 3.6916 13.5947 3.70731C13.3023 3.86322 12.976 3.94942 12.6417 3.95972C12.6081 3.96075 12.5738 3.96075 12.5053 3.96075C12.4372 3.96075 12.4014 3.96075 12.3678 3.95972C12.0328 3.94938 11.7058 3.8627 11.4131 3.70615C11.3835 3.69037 11.3544 3.67322 11.2955 3.63931L10.9214 3.4239C10.3025 3.06741 9.99252 2.8889 9.66177 2.81772C9.36916 2.75473 9.06629 2.75299 8.77274 2.81181C8.44128 2.87823 8.12974 3.05169 7.50666 3.39861L7.50389 3.39979L6.99164 3.68499L6.98597 3.68832C6.3685 4.03212 6.05901 4.20443 5.83558 4.44569C5.6373 4.65978 5.4891 4.91191 5.40039 5.18536C5.30013 5.49445 5.30547 5.83913 5.31755 6.52811L5.32506 6.95603C5.32619 7.02083 5.32817 7.05303 5.32767 7.0849C5.3227 7.4071 5.23596 7.72366 5.07723 8.00764C5.06153 8.03573 5.04462 8.06382 5.01084 8.11991C4.97704 8.17605 4.96067 8.20397 4.94314 8.23106C4.76591 8.505 4.52303 8.73408 4.23437 8.8992C4.20582 8.91554 4.17573 8.93124 4.1166 8.96267L3.73681 9.16458C3.10492 9.50051 2.78905 9.66862 2.5592 9.90786C2.35587 10.1195 2.20227 10.3705 2.10851 10.6439C2.00252 10.953 2.00261 11.2995 2.00425 11.9926L2.00559 12.559C2.00722 13.2474 2.00946 13.5914 2.11568 13.8984C2.20966 14.17 2.36214 14.4195 2.56433 14.6299C2.79288 14.8677 3.10561 15.0347 3.73271 15.3694L4.10911 15.5703C4.17317 15.6045 4.20541 15.6213 4.2363 15.6392C4.52234 15.8044 4.76331 16.0329 4.93904 16.3052C4.95802 16.3347 4.97624 16.3652 5.01269 16.4263C5.04868 16.4866 5.06709 16.5168 5.08374 16.547C5.2378 16.8268 5.32029 17.1377 5.32591 17.4541C5.32652 17.4883 5.326 17.5229 5.32478 17.5924L5.31755 18.003C5.30539 18.6944 5.30009 19.0405 5.40094 19.3504C5.49017 19.6246 5.6393 19.8771 5.83865 20.0914C6.06399 20.3337 6.37638 20.5064 7.00087 20.8516L7.51947 21.1383C8.1422 21.4825 8.45346 21.6545 8.78407 21.7201C9.07655 21.7782 9.37855 21.776 9.66998 21.7132C9.99936 21.6423 10.308 21.465 10.9245 21.1108L11.2962 20.8973C11.355 20.8636 11.3848 20.8466 11.4142 20.8309C11.7065 20.675 12.0325 20.5884 12.3668 20.5781C12.4005 20.577 12.4347 20.577 12.5033 20.577C12.5719 20.577 12.6062 20.577 12.6399 20.5781C12.9749 20.5884 13.3029 20.6754 13.5957 20.8319C13.6214 20.8457 13.6472 20.8606 13.6926 20.8867L14.0877 21.1142C14.7067 21.4708 15.016 21.6487 15.3468 21.7199C15.6394 21.7829 15.9425 21.7855 16.2361 21.7267C16.5674 21.6603 16.8796 21.4865 17.5023 21.1397L18.0223 20.8502C18.6401 20.5062 18.95 20.3337 19.1735 20.0924C19.3718 19.8783 19.5202 19.6263 19.6089 19.3528C19.7084 19.046 19.7024 18.704 19.6905 18.0249L19.6827 17.582C19.6816 17.5172 19.6814 17.485 19.6819 17.4531C19.6869 17.1309 19.7722 16.8142 19.931 16.5302C19.9466 16.5021 19.9637 16.4738 19.9973 16.4179C20.0311 16.3618 20.0486 16.3338 20.0662 16.3067C20.2434 16.0328 20.4865 15.8035 20.7752 15.6384C20.8034 15.6222 20.8324 15.6068 20.8901 15.5761L20.8921 15.5752L21.2719 15.3733C21.9038 15.0374 22.2203 14.8691 22.4501 14.6299C22.6535 14.4182 22.8069 14.1675 22.9006 13.8941C23.006 13.5869 23.0052 13.2424 23.0035 12.5574L23.0022 11.9788C23.0005 11.2904 22.9997 10.9465 22.8934 10.6395C22.7995 10.3679 22.6461 10.1184 22.4439 9.90801C22.2156 9.67046 21.9024 9.50334 21.2766 9.16932L21.2747 9.16846Z" stroke="#111111" stroke-width="1.5" stroke-linecap="round" stroke-linejoin="round"/>
<path d="M8.3026 12.2691C8.3026 14.4952 10.1837 16.2998 12.5042 16.2998C14.8247 16.2998 16.7059 14.4952 16.7059 12.2691C16.7059 10.043 14.8247 8.23841 12.5042 8.23841C10.1837 8.23841 8.3026 10.043 8.3026 12.2691Z" stroke="#111111" stroke-width="1.5" stroke-linecap="round" stroke-linejoin="round"/>
</svg>
